<svg xmlns="http://www.w3.org/2000/svg" viewBox="0 0 600 600"><defs><style>.cls-1{fill:#ffaf12;}.cls-2{fill:#c58200;}</style></defs><g id="Layer_2" data-name="Layer 2"><g id="Layer_1-2" data-name="Layer 1"><path class="cls-1" d="M300,592a288.66,288.66,0,0,1-134.15-32.58,294.68,294.68,0,0,1-100.2-85.23L57.4,399l-28.83,8.83A292.3,292.3,0,0,1,202.47,24.69L246.74,46,290.88,8.16C294.16,8.05,297.17,8,300,8A292,292,0,0,1,506.48,506.48,290.11,290.11,0,0,1,300,592Z"/><path class="cls-2" d="M300,16A284.08,284.08,0,0,1,410.54,561.69,282.27,282.27,0,0,1,300,584a285.4,285.4,0,0,1-68.24-8.25,282.44,282.44,0,0,1-62.23-23.43,286.86,286.86,0,0,1-96.17-81.18l-7-63.39-2.1-19.21L45.81,394.2,33.37,398A284.49,284.49,0,0,1,70.15,133.17,284.63,284.63,0,0,1,202,33.36l36.54,17.56L248,55.44l7.93-6.79,38-32.57c2.13,0,4.14-.08,6.07-.08m0-16c-4.09,0-8.16.11-12.21.27L245.5,36.5,203,16.05C84.9,56.39,0,168.28,0,300A299.14,299.14,0,0,0,24,417.64L50.5,409.5l7.43,67.71C112.52,551.65,200.61,600,300,600c165.69,0,300-134.31,300-300S465.69,0,300,0Z"/><path class="cls-1" d="M299.5,531.5a232,232,0,0,1-164-396A232,232,0,0,1,531.5,299.5a229.58,229.58,0,0,1-21.61,97.88l-59-17.12L434.15,493.52C401.15,512.27,344.15,531.5,299.5,531.5Z"/><path class="cls-2" d="M299.5,75.5A224.12,224.12,0,0,1,505.44,387.76L462,375.13,444.36,370l-2.69,18.14L426.82,488.44c-32.94,17.82-87,35.06-127.32,35.06a224,224,0,1,1,0-448m0-16C167,59.5,59.5,167,59.5,299.5s107.45,240,240,240c44.87,0,106.08-19.57,142-41l16-108L514.14,407A238.93,238.93,0,0,0,539.5,299.5c0-132.55-107.45-240-240-240Z"/><path class="cls-1" d="M299.37,459.78a15.94,15.94,0,0,1-11.05-4.42L137.24,311.27A12,12,0,0,1,139.8,292l41.79-22.65H417.42L459.2,292a12,12,0,0,1,2.55,19.24L310.4,455.37A16,16,0,0,1,299.37,459.78Z"/><path class="cls-2" d="M415.39,277.38l40,21.68a4,4,0,0,1,.85,6.42L304.88,449.57a8,8,0,0,1-11,0L142.76,305.48a4,4,0,0,1,.86-6.41l40-21.69H415.39m4.06-16H179.56L176,263.31,136,285a20,20,0,0,0-4.27,32.05L282.8,461.15a24,24,0,0,0,33.11,0l151.36-144.1A20,20,0,0,0,463,285l-40-21.69-3.57-1.93Z"/><path class="cls-1" d="M299.26,446.3c-22-53.21-65.33-91.38-117.62-103-2.11-.47-3.6-3.21-3.27-6L200.69,154l72.93,67.12a37.5,37.5,0,0,0,51.34.21l73.83-66.94L421,337.1c.34,2.79-1.16,5.53-3.28,6C365.87,354.31,321.28,393.43,299.26,446.3Z"/><path class="cls-2" d="M206.74,170.4,268.2,227a45.51,45.51,0,0,0,62.14.25l62.38-56.56L412.84,336c-47.75,11.4-89.27,45.27-113.54,91.43-24.06-46.32-64.62-79.49-112.74-91.22L206.74,170.4m-12.11-32.9-24.2,198.82c-.84,6.92,3.3,13.4,9.47,14.77,53,11.79,96.34,53.07,115.59,107.74a4,4,0,0,0,7.53,0c19.35-55,63.07-96.38,116.42-107.92,6.2-1.34,10.38-7.83,9.53-14.78L404.86,138l-85.27,77.32a29.51,29.51,0,0,1-40.55-.16L194.63,137.5Z"/></g></g></svg>