<svg xmlns="http://www.w3.org/2000/svg" viewBox="0 0 38 41.56"><defs><style>.cls-1{fill:#ffaf12;stroke:#c58200;stroke-miterlimit:10;stroke-width:2px;}</style></defs><g id="Layer_2" data-name="Layer 2"><g id="Layer_1-2" data-name="Layer 1"><path class="cls-1" d="M35.2,13.94C30.87,3.69,20.1-1.55,11.16,2.23A15.61,15.61,0,0,0,9.52,3V7.5h-5C.69,12.79-.22,20.48,2.8,27.63a10.58,10.58,0,0,0,1.51,3.11l3-.7-.42,4c5.27,5.84,13.16,8.21,20,5.32C35.79,35.55,39.53,24.18,35.2,13.94Z"/><path class="cls-1" d="M26.84,22.05l3.51-.82a14.39,14.39,0,0,0-1.11-4.75C26.49,10,19.67,6.66,14,9.06s-8,9.61-5.3,16.1S18.27,35,23.94,32.58a10,10,0,0,0,4.48-3.77Z"/></g></g></svg>