<svg width="16" height="16" viewBox="0 0 16 16" fill="none" xmlns="http://www.w3.org/2000/svg">
<path d="M14.1939 12.2596C14.4136 12.4107 14.4703 12.7123 14.3063 12.9225C13.3137 14.1942 11.9569 15.1393 10.4116 15.6278C8.7125 16.165 6.88265 16.1196 5.21231 15.4986C3.54198 14.8776 2.12679 13.7167 1.19121 12.2001C0.255638 10.6834 -0.14676 8.89774 0.0478453 7.12637C0.24245 5.355 1.02292 3.69931 2.26545 2.42192C3.50799 1.14453 5.14145 0.318572 6.90676 0.07505C8.67207 -0.168472 10.4682 0.184385 12.0101 1.07766C13.4125 1.89006 14.5317 3.10715 15.2245 4.56398C15.3391 4.80478 15.2182 5.08688 14.9709 5.18667V5.18667C14.7236 5.28646 14.4438 5.16601 14.3273 4.92617C13.7163 3.66845 12.7423 2.61773 11.5261 1.91317C10.1703 1.12772 8.59095 0.817447 7.03871 1.03158C5.48647 1.24571 4.05017 1.97197 2.9576 3.09519C1.86504 4.2184 1.17877 5.67424 1.00766 7.23181C0.836539 8.78938 1.19037 10.3595 2.01302 11.6931C2.83568 13.0267 4.08005 14.0475 5.54878 14.5935C7.01751 15.1395 8.6265 15.1795 10.1205 14.7072C11.4607 14.2835 12.6396 13.4693 13.509 12.3742C13.6748 12.1654 13.9742 12.1085 14.1939 12.2596V12.2596Z" fill="url(#paint0_angular_2343_2000)"/>
<defs>
<radialGradient id="paint0_angular_2343_2000" cx="0" cy="0" r="1" gradientUnits="userSpaceOnUse" gradientTransform="translate(8 8) rotate(-15.9454) scale(6.85187)">
<stop/>
<stop offset="1" stop-color="#FF8723"/>
</radialGradient>
</defs>
</svg>
